<svg width="65" height="53" viewBox="0 0 65 53" fill="none" xmlns="http://www.w3.org/2000/svg">
<path d="M30.0623 5.53916C30.8346 4.09177 31.221 3.36808 31.7587 3.14522C32.2258 2.95159 32.7743 2.95159 33.2413 3.14522C33.7791 3.36808 34.1654 4.09177 34.9377 5.53916L41.0896 17.0678C41.3181 17.4957 41.4322 17.7096 41.609 17.8735C41.7652 18.0184 41.9563 18.1344 42.1695 18.2137C42.4107 18.3035 42.6896 18.3281 43.2474 18.3772L58.2744 19.7021C60.1609 19.8684 61.1041 19.9515 61.5241 20.3099C61.8887 20.6211 62.0582 21.057 61.9821 21.4879C61.8947 21.984 61.1901 22.5143 59.781 23.5752L48.5559 32.0253C48.1395 32.3388 47.931 32.4957 47.7992 32.6866C47.6825 32.8557 47.6094 33.0433 47.585 33.2372C47.5574 33.4565 47.6154 33.6856 47.7318 34.144L50.8671 46.4913C51.2608 48.0416 51.4576 48.8166 51.1794 49.2608C50.9375 49.6471 50.4938 49.9163 49.9797 49.989C49.3879 50.0726 48.5662 49.6769 46.9228 48.8852L33.8335 42.5787C33.3477 42.3446 33.1049 42.2279 32.8467 42.1819C32.6181 42.1415 32.3819 42.1415 32.1534 42.1819C31.8952 42.2279 31.6523 42.3446 31.1666 42.5787L18.0773 48.8852C16.434 49.6769 15.6123 50.0726 15.0205 49.989C14.5063 49.9163 14.0625 49.6471 13.8208 49.2608C13.5426 48.8166 13.7394 48.0416 14.1331 46.4913L17.2682 34.144C17.3846 33.6856 17.4428 33.4565 17.4152 33.2372C17.3907 33.0433 17.3177 32.8557 17.201 32.6866C17.069 32.4957 16.8607 32.3388 16.4441 32.0253L5.21931 23.5752C3.81009 22.5143 3.10547 21.984 3.01786 21.4879C2.9418 21.057 3.11131 20.6211 3.47608 20.3099C3.89603 19.9515 4.83932 19.8684 6.72591 19.7021L21.7528 18.3772C22.3106 18.3281 22.5894 18.3035 22.8305 18.2137C23.0439 18.1344 23.2349 18.0184 23.3912 17.8735C23.5679 17.7096 23.6821 17.4957 23.9104 17.0678L30.0623 5.53916Z" stroke="#D46C41" stroke-width="5" stroke-linecap="round" stroke-linejoin="round"/>
</svg>
